# xmcd
#
# Track frame offsets: 
#        150
#        27035
#        43437
#        98575
#        139965
#        235302
#
# Disc length: 4404 seconds
#
# Revision: 37
# Processed by: cddbd v1.5.2PL0 Copyright (c) Steve Scherf et al.
# Submitted via: ExactAudioCopyFreeDBPlugin 1.0
#
DISCID=4c113206
DTITLE=Miles Davis - The Complete Bitches Brew Sessions
DYEAR=2004
DGENRE=Jazz
TTITLE0=Trevere
TTITLE1=The Big Green Serpent
TTITLE2=The Little Blue Frog (alt)
TTITLE3=The Little Blue Frog (mst)
TTITLE4=Lonely Fire
TTITLE5=Guinnevere
EXTD=YEAR: 1998
EXTT0=
EXTT1=
EXTT2=
EXTT3=
EXTT4=
EXTT5=
PLAYORDER=
